# File created by Blade
# Date/Time:  Wed Sep 24 19:25:39 2014
# Frame Rate: 120.000 fps
#------------------------------------------------------
:FULLY-SPECIFIED
:DEGREES
3717
root -15.304999 32.167757 -4.192256 11.045589 50.144214 -5.817491
Spine -16.818394 -5.934242 20.136430
Head -7.631637 -18.846210 -0.228573
LeftShoulder -4.231553 13.826768 8.390986
LeftArm 52.064960 50.913466 -52.971767
LeftForeArm 5.807494 -0.000000 26.680601
LeftHand -24.237792 -0.000000 -4.828487
LeftHandThumb1 -26.253704 0.000000 33.147579
RightShoulder -18.592959 10.814525 -34.721274
RightArm -22.005314 39.285101 35.459565
RightForeArm 18.924732 -0.000000 128.065648
RightHand -13.756637 -0.000000 -2.149091
RightHandThumb1 -24.326973 -0.000000 -32.862282
LeftUpLeg -5.466186 34.195668 8.684911
LeftLeg 66.359283 -0.000000 -0.000000
LeftFoot 38.572443 16.779294 -18.440105
LeftToeBase 31.744334 -0.000000 -0.000000
RightUpLeg -12.830057 -7.271155 14.998483
RightLeg 0.272810 -0.000000 -0.000000
RightFoot -8.431500 -26.554555 -9.558071
RightToeBase -0.188531 -0.000000 0.000000
3718
root -15.306676 32.168093 -4.181451 11.097076 50.043555 -5.744747
Spine -16.872534 -5.845009 20.044651
Head -7.522952 -18.731539 -0.273489
LeftShoulder -4.325362 13.941788 8.354948
LeftArm 52.023945 50.885512 -52.935670
LeftForeArm 5.670191 -0.000000 26.729674
LeftHand -24.203493 -0.000000 -4.883688
LeftHandThumb1 -26.253704 0.000000 33.147579
RightShoulder -18.584169 10.833607 -34.687121
RightArm -21.917549 39.173475 35.507681
RightForeArm 18.851306 -0.000000 127.995573
RightHand -13.748527 -0.000000 -2.135345
RightHandThumb1 -24.326973 -0.000000 -32.862282
LeftUpLeg -5.667368 34.510384 8.772917
LeftLeg 68.182701 -0.000000 -0.000000
LeftFoot 38.330431 17.283386 -18.736132
LeftToeBase 31.977907 -0.000000 -0.000000
RightUpLeg -12.808169 -7.286183 14.973608
RightLeg 0.273813 -0.000000 -0.000000
RightFoot -8.449524 -26.485363 -9.599862
RightToeBase -0.116399 -0.000000 0.000000
3719
root -15.308273 32.168486 -4.170899 11.150908 49.941650 -5.682673
Spine -16.934478 -5.769237 19.971798
Head -7.438027 -18.615622 -0.322486
LeftShoulder -4.427975 14.040393 8.309302
LeftArm 52.021209 50.889780 -52.848423
LeftForeArm 5.550673 -0.000000 26.752009
LeftHand -24.216498 -0.000000 -5.009199
LeftHandThumb1 -26.253704 0.000000 33.147579
RightShoulder -18.564278 10.835452 -34.661641
RightArm -21.843020 39.090517 35.554700
RightForeArm 18.754424 -0.000000 127.914384
RightHand -13.788885 -0.000000 -2.125396
RightHandThumb1 -24.326973 -0.000000 -32.862282
LeftUpLeg -5.870233 34.842007 8.866870
LeftLeg 69.978473 -0.000000 -0.000000
LeftFoot 37.890812 17.998994 -19.194343
LeftToeBase 32.111157 -0.000000 -0.000000
RightUpLeg -12.805795 -7.306736 14.953972
RightLeg 0.305107 -0.000000 -0.000000
RightFoot -8.486389 -26.368220 -9.616577
RightToeBase -0.179162 -0.000000 0.000000
3720
root -15.311505 32.168961 -4.160071 11.186465 49.815785 -5.642581
Spine -16.977163 -5.674554 19.907181
Head -7.383235 -18.500869 -0.356613
LeftShoulder -4.518118 14.145358 8.264836
LeftArm 52.018080 50.895109 -52.762570
LeftForeArm 5.392791 0.000000 26.754007
LeftHand -24.192864 -0.000000 -4.979710
LeftHandThumb1 -26.253704 0.000000 33.147579
RightShoulder -18.541654 10.821197 -34.628766
RightArm -21.783715 39.050105 35.590923
RightForeArm 18.659448 -0.000000 127.841689
RightHand -13.851582 0.000000 -2.142336
RightHandThumb1 -24.326973 -0.000000 -32.862282
LeftUpLeg -6.030780 35.228418 8.978504
LeftLeg 71.700367 -0.000000 -0.000000
LeftFoot 37.530699 18.496298 -19.340813
LeftToeBase 32.246148 -0.000000 -0.000000
RightUpLeg -12.797122 -7.265126 14.933522
RightLeg 0.327958 -0.000000 -0.000000
RightFoot -8.526943 -26.281427 -9.570006
RightToeBase -0.196448 -0.000000 0.000000
3721
root -15.314576 32.169357 -4.148467 11.205176 49.711618 -5.618361
Spine -17.014615 -5.621041 19.876820
Head -7.357515 -18.377632 -0.393416
LeftShoulder -4.601983 14.210061 8.217743
LeftArm 51.963627 50.918323 -52.720252
LeftForeArm 5.263126 -0.000000 26.717160
LeftHand -24.180967 -0.000000 -5.082596
LeftHandThumb1 -26.253704 0.000000 33.147579
RightShoulder -18.506429 10.807643 -34.605568
RightArm -21.750186 39.029943 35.613193
RightForeArm 18.612732 -0.000000 127.788491
RightHand -13.820312 0.000000 -2.121656
RightHandThumb1 -24.326973 -0.000000 -32.862282
LeftUpLeg -6.178553 35.605026 9.116383
LeftLeg 73.407388 -0.000000 -0.000000
LeftFoot 36.998411 19.128194 -19.890632
LeftToeBase 32.106494 -0.000000 -0.000000
RightUpLeg -12.782563 -7.203101 14.904807
RightLeg 0.363294 -0.000000 -0.000000
RightFoot -8.639907 -26.139625 -9.376971
RightToeBase -0.266449 -0.000000 0.000000
3722
root -15.313249 32.166168 -4.136653 11.232077 49.609354 -5.520380
Spine -16.994039 -5.606059 19.771650
Head -7.367354 -18.258740 -0.363773
LeftShoulder -4.658006 14.296138 8.199164
LeftArm 51.923735 50.885811 -52.660302
LeftForeArm 5.185473 -0.000000 26.658828
LeftHand -24.005392 -0.000000 -5.455430
LeftHandThumb1 -26.253704 0.000000 33.147579
RightShoulder -18.478560 10.821439 -34.577827
RightArm -21.744074 39.018474 35.640899
RightForeArm 18.563485 -0.000000 127.736596
RightHand -13.815975 -0.000000 -2.164466
RightHandThumb1 -24.326973 -0.000000 -32.862282
LeftUpLeg -6.239420 36.023248 9.247007
LeftLeg 75.074992 -0.000000 -0.000000
LeftFoot 37.035802 19.202844 -19.407097
LeftToeBase 31.718746 -0.000000 -0.000000
RightUpLeg -12.736361 -7.326968 14.908278
RightLeg 0.388487 -0.000000 -0.000000
RightFoot -8.567238 -26.192376 -9.750030
RightToeBase -0.136848 -0.000000 0.000000
